<svg aria-hidden="true" style="position: absolute; width: 0; height: 0; overflow: hidden;" version="1.1" xmlns="http://www.w3.org/2000/svg" xmlns:xlink="http://www.w3.org/1999/xlink">
<defs>
<symbol id="icon-Layer_1-2" viewBox="0 0 241 32">
<path d="M17.628 8.503v22.101h-8.097v-22.101h-8.182v-7.033h24.463v7.033h-8.184z"></path>
<path d="M44.715 21.822h-12.855c0.25 2.414 1.669 3.494 3.715 3.494 1.919 0 3.507-0.416 5.678-1.541l2.879 4.787c-2.712 1.581-5.51 2.497-8.933 2.497-6.596 0-10.228-4.663-10.228-11.363 0-7.532 4.258-11.402 10.018-11.402 6.013 0 9.77 3.953 9.77 12.070 0 0.625 0 1.082-0.044 1.458zM34.781 13.83c-1.713 0-2.671 1.167-2.922 3.329h6.263c-0.379-2.207-1.13-3.329-3.341-3.329z"></path>
<path d="M58.694 31.059c-6.427 0-10.268-4.078-10.268-11.444 0-6.701 3.422-11.321 10.436-11.321 4.132 0 6.513 1.915 8.434 4.995l-5.177 3.913c-1.043-1.915-1.755-2.83-3.38-2.83-1.922 0-2.881 1.915-2.881 5.369 0 3.456 1.043 5.244 3.089 5.244 1.419 0 2.421-0.791 3.799-2.83l4.758 3.704c-2.546 3.745-4.927 5.202-8.809 5.202z"></path>
<path d="M84.322 30.603v-12.405c0-2.83-0.96-3.579-2.504-3.579-1.586 0-2.548 0.748-2.548 3.496v12.488h-7.514v-27.344l7.514-2.997v9.947c1.378-1.040 2.923-1.915 5.51-1.915 4.8 0 7.098 3.205 7.098 8.948v13.361h-7.556z"></path>
<path d="M109.864 31.059c-8.682 0-13.317-6.409-13.317-15.025 0-9.364 5.51-15.025 13.358-15.025 7.181 0 10.022 3.080 12.024 8.573l-7.345 2.872c-1.045-2.706-2.048-4.413-4.719-4.413-3.38 0-4.843 3.371-4.843 7.992 0 4.454 1.419 7.99 4.925 7.99 2.545 0 3.632-1.372 5.216-4.12l6.846 3.621c-1.96 3.83-5.216 7.533-12.145 7.533z"></path>
<path d="M140.494 16.992c-0.959-1.040-2.044-1.831-3.505-1.831-1.838 0-2.966 0.873-2.966 3.537v11.904h-7.514v-21.85h7.514v1.581c1.293-1.249 2.754-2.040 4.677-2.040 1.586 0 2.671 0.374 3.547 0.915l-1.753 7.783z"></path>
<path d="M158.358 30.603v-1.46c-1.337 1.040-2.922 1.917-5.468 1.917-4.8 0-7.096-3.205-7.096-8.949v-13.359h7.556v12.403c0 2.829 0.959 3.579 2.504 3.579 1.544 0 2.504-0.75 2.504-3.498v-12.484h7.556v21.852h-7.556z"></path>
<path d="M183.901 30.603v-12.405c0-2.83-0.96-3.579-2.504-3.579-1.588 0-2.548 0.748-2.548 3.496v12.488h-7.514v-21.85h7.514v1.456c1.378-1.040 2.923-1.915 5.51-1.915 4.802 0 7.099 3.205 7.099 8.948v13.361h-7.557z"></path>
<path d="M206.101 31.059c-6.426 0-10.268-4.078-10.268-11.444 0-6.701 3.424-11.321 10.436-11.321 4.134 0 6.513 1.915 8.435 4.995l-5.178 3.913c-1.043-1.915-1.754-2.83-3.379-2.83-1.922 0-2.882 1.915-2.882 5.369 0 3.456 1.043 5.244 3.089 5.244 1.419 0 2.421-0.791 3.797-2.83l4.759 3.704c-2.545 3.745-4.924 5.202-8.808 5.202z"></path>
<path d="M231.729 30.603v-12.405c0-2.83-0.96-3.579-2.504-3.579-1.589 0-2.549 0.748-2.549 3.496v12.488h-7.514v-27.344l7.514-2.997v9.947c1.378-1.040 2.923-1.915 5.51-1.915 4.802 0 7.098 3.205 7.098 8.948v13.361h-7.556z"></path>
</symbol>
<symbol id="icon-Layer_1-3" viewBox="0 0 151 32">
<path d="M60.84 31.576h29.98v-30.436h-29.98v30.436zM67.716 5.983h11.918c0 0 5.135-0.275 5.135 5.302 0 5.575-3.117 5.849-3.117 5.849s3.117 0.183 3.117 4.479c0 4.296 0 4.754 0 4.754h-4.126v-4.48c0 0 0-3.472-2.383-3.472s-6.509 0.091-6.509 0.091v7.952h-4.034v-20.474h-0.001z"></path>
<path d="M80.643 12.016c0-2.925-3.117-2.467-3.117-2.467h-5.776v5.668c0 0 3.118-0.092 5.685-0.092 2.567-0.001 3.208-0.548 3.208-3.108z"></path>
<path d="M38.975 9.411c0 0 4.782 0 5.042 0v13.712c-0.26 0-5.042 0-5.042 0v3.473h14.486v-3.473c0 0-5.24 0-5.501 0v-13.712c0.261 0 5.501 0 5.501 0v-3.472h-14.486v3.472z"></path>
<path d="M0.881 31.576h29.98v-30.436h-29.98v30.436zM7.573 6.075l2.842 15.63 3.667-15.63 4.492 0.091 3.668 15.813 2.751-15.903h3.941l-4.217 20.474h-5.135l-3.3-14.899-3.576 14.989h-5.042l-4.218-20.566 4.126 0.001z"></path>
<path d="M120.523 1.14v30.438h29.98v-30.438h-29.98zM138.126 26.733c-7.516 0-10.909 0.091-10.909 0.091v-20.749h8.893c0 0 9.166-1.006 9.166 7.221v5.758c0.001 0 0.369 7.679-7.15 7.679z"></path>
<path d="M137.669 9.457h-6.235v13.71c0 0 3.392 0 6.509 0s3.208-4.022 3.208-4.022c0 0 0-0.639 0-5.301s-3.482-4.387-3.482-4.387z"></path>
<path d="M96.32 9.365h2.842v13.802h-2.842v3.382h17.511v-6.672h-3.483v3.29h-7.426v-5.574h5.5v-3.383h-5.5v-4.844h7.151v3.291h3.758v-6.673h-17.511v3.382z"></path>
</symbol>
<symbol id="icon-Layer_1-4" viewBox="0 0 125 32">
<path d="M44.912 0.718h-13.698v23.513h-16.438l15.927-23.513h-24.178l-4.46 6.637h14.641l-16.009 23.514h32.632l5.75-8.452v-15.061h4.394c5.052 0 8.624 3.040 8.624 8.438 0 5.877-4.012 8.437-8.705 8.437h-3.475v6.638h4.996c8.387 0 15.364-6.596 15.364-15.075 0-8.477-6.939-15.075-15.365-15.075zM78.656 12.939c0.046 2.131 0.27 6.083 0.493 8.482-0.626-2.219-1.826-5.461-3.387-8.75l-5.924-12.346h-6.904v30.866h6.011l-0.179-13.191c-0.045-2.575-0.088-6.217-0.312-8.747 0.581 1.909 2.453 6.261 4.189 10.125l5.301 11.813h6.505v-30.865h-5.927l0.135 12.612zM97.598 7.966c-3.027 0-5.301 0.977-7.169 3.065-2.005 2.221-2.852 4.929-2.852 9.014 0 7.149 4.235 11.769 10.777 11.769 3.209 0 5.969-1.022 8.597-3.152l-2.317-3.553c-1.822 1.508-3.74 2.264-5.787 2.264-3.076 0-4.811-1.998-4.811-5.509v-0.176h13.184v-1.376c0-4.751-0.937-7.818-3.031-9.948-1.467-1.509-3.962-2.397-6.59-2.397zM101.026 17.335h-6.903v-0.088c0-3.154 1.295-4.929 3.562-4.929 1.205 0 2.051 0.443 2.631 1.332 0.536 0.843 0.71 1.73 0.71 3.419v0.267zM123.189 27.149c-1.067 0.313-1.602 0.445-2.137 0.445-2.047 0-2.583-0.756-2.583-3.643v-11.413h3.832l1.511-4.086h-5.343c0-2.308 0.134-4.796 0.353-6.883l-6.056 1.511c-0.222 1.689-0.222 3.152-0.222 5.373h-2.271v4.086h2.271v12.347c0 2.087 0.043 2.529 0.399 3.509 0.714 1.996 3.121 3.328 6.148 3.328 1.561 0 3.119-0.31 4.857-1.020l-0.76-3.554z"></path>
</symbol>
<symbol id="icon-Layer_1" viewBox="0 0 198 32">
<path d="M94.345 9.183c0 3.956-0.397 16.219-0.397 16.219 0 2.373 0.794 3.429 3.042 3.429v1.056h-8.863v-1.056c2.248 0 3.439-1.056 3.439-3.429l0.794-20.044c-0.66-1.583-1.323-2.11-3.042-2.241v-0.923h6.745l7.143 18.725 7.274-18.725h6.084v0.923c-1.72 0-2.645 0.791-2.645 2.637l0.794 19.384c0 2.901 0.529 3.693 2.909 3.693v1.056h-10.184v-1.056c1.985 0 2.91-0.659 2.779-3.693 0 0-0.397-13.582-0.53-15.955l-4.895 13.45c-0.66 1.713-1.323 3.692-1.851 5.802l-1.586 0.133c-0.397-1.452-1.456-4.089-1.456-4.089s-4.098-11.472-5.553-15.296z"></path>
<path d="M86.013 30.018c-0.53-0.131-1.059-0.131-1.588-0.131-1.057 0-2.909 0.527-5.157 0.527-8.598 0-14.947-5.141-14.947-14.638 0-8.043 5.953-14.242 15.078-14.242 2.116 0 4.497 0.396 6.481 1.187 0.397-0.396 0.53-0.66 0.926-1.056h0.794c-0.132 1.45-0.661 6.197-0.661 6.197h-0.794c-0.529-2.769-1.985-4.614-6.613-4.614-5.554 0-10.581 4.352-10.581 12.395 0 9.099 5.157 13.055 10.846 13.055 3.703 0 5.952-2.11 7.407-4.747l0.926 0.396-2.116 5.672z"></path>
<path d="M61.013 7.337h-0.926c-0.132-2.506-0.926-3.297-2.91-3.297h-3.836v20.704c0 3.429 0.662 4.087 2.909 4.087v1.056h-9.92v-1.056c2.248 0 2.91-0.659 2.91-4.22v-20.571h-3.836c-2.513 0-2.91 0.659-3.571 3.297h-0.926l0.66-5.933 0.661 0.13c0.264 0.66 0.794 0.66 2.38 0.66h12.829c2.38 0 2.91 0 3.439-0.79h0.794l-0.658 5.933z"></path>
<path d="M32.973 30.545c-1.851 0-3.307-0.264-4.365-0.659-1.059-0.264-1.851-0.659-2.248-0.924-0.53 0.529-0.926 1.187-0.926 1.187l-0.794-0.263 0.66-6.197 0.926 0.132c0.529 2.901 2.513 5.012 6.613 5.012 3.174 0 5.29-2.639 5.29-5.537 0-2.374-0.926-3.562-4.1-5.934-1.059-0.66-1.985-1.187-2.777-1.847-2.91-1.846-4.762-3.956-4.762-7.385 0-3.956 3.306-6.595 7.672-6.595 2.513 0 4.1 0.791 4.628 1.056l0.926-1.056 0.66 0.133-0.66 5.67-0.926-0.131c0-2.637-1.588-3.824-4.233-3.824-2.513 0-4.365 1.319-4.365 3.824 0 2.241 1.72 3.693 3.704 5.010 1.059 0.659 1.851 1.187 2.645 1.714 4.63 3.296 5.687 5.406 5.687 8.57 0 4.616-3.571 8.045-9.258 8.045z"></path>
<path d="M17.896 7.337h-1.059c0-2.373-1.059-3.297-3.174-3.297h-5.953v10.418h3.836c1.985 0 2.382-1.054 2.645-2.769h0.926v7.385h-0.926c-0.264-1.977-0.661-2.769-2.777-2.769h-3.704v8.835c0 3.297 0.792 3.693 2.909 3.693v1.056h-10.051v-1.056c2.513 0 2.909-0.659 2.909-3.693v-19.383c0-1.846-0.792-2.637-2.909-2.637v-0.923h13.756c2.38 0 2.909-0.131 3.307-0.923h0.926l-0.662 6.064z"></path>
<path d="M160.611 8.919v15.825c0 3.429 0.794 4.087 2.91 4.087v1.056h-15.608v-1.056c1.191 0 2.248-0.396 2.248-1.187 0-0.527-0.132-1.452-0.397-2.373l-1.191-3.824h-8.728c-0.132 0.527-1.72 4.879-1.72 6.066 0 1.056 1.189 1.319 1.983 1.319v1.056h-7.274v-1.056c1.323 0 2.38-0.131 3.306-2.901l6.746-21.495c-0.397-0.923-0.926-1.186-1.851-1.319v-0.923h5.952l7.143 22.549c0.661 2.373 1.323 3.56 2.38 4.087 1.586-0.529 1.983-1.056 1.983-4.087v-18.988c-1.191-1.583-1.323-2.637-3.571-2.637v-0.923h6.747l11.109 18.856v-14.373c0-2.902-0.659-3.56-2.909-3.56v-0.923h14.814v0.923c-0.925 0-1.72 0.396-1.72 1.319 0 0.659 0.264 1.319 0.53 2.11l4.232 9.099 4.102-8.836c0.661-1.186 0.792-1.846 0.792-2.504 0-0.791-0.53-1.187-1.72-1.187v-0.923h7.010v0.923c-1.718 0-2.776 1.583-3.57 3.429l-5.422 11.076v7.252c0 3.166 0.794 3.956 2.91 3.956v1.056h-10.053v-1.056c2.117 0 2.91-0.792 2.91-3.956v-6.197l-5.819-12.265c-1.059-2.373-1.456-2.9-2.117-3.296-1.322 0.527-1.718 1.45-1.718 3.56v20.308c0 0 0.131 1.583 0.264 3.427l-1.72 0.133-12.966-21.625zM144.076 7.6l-3.703 11.999h7.672l-3.969-11.999z"></path>
<path d="M127.676 19.6c0 0-1.189 0-1.983 0v5.67c0 2.902 0.794 3.56 3.042 3.56v1.056h-10.184v-1.056c2.116 0 2.909-0.792 2.909-3.693v-18.592c0-2.902-0.792-3.429-2.909-3.429v-0.923h7.672c7.405 0 11.772 2.242 11.772 8.307-0.001 6.329-5.292 9.099-10.319 9.099zM126.353 4.040h-0.66v13.582h1.191c4.365 0 6.613-1.979 6.613-6.989s-1.986-6.593-7.143-6.593z"></path>
<path d="M81.515 24.612c-5.027 0-8.464-3.562-8.464-8.703 0-4.88 3.571-8.703 8.464-8.703 4.762 0 8.333 3.693 8.333 8.703 0 4.879-3.703 8.703-8.333 8.703zM81.515 8.787c-3.439 0-4.63 3.297-4.63 7.122 0 3.56 1.059 7.122 4.63 7.122 3.439 0 4.497-3.56 4.497-7.253 0.002-3.562-1.323-6.99-4.497-6.99z"></path>
<path d="M23.318 23.029v-0.924c1.323 0 1.586-0.396 1.586-0.792 0-0.527-0.132-0.923-0.264-1.319 0 0-0.265-1.056-0.53-1.846h-5.159l-0.529 1.714c-0.132 0.394-0.265 0.79-0.265 1.319 0 0.527 0.53 0.923 1.323 0.923v0.924h-5.159v-0.924c1.323 0 1.851-0.396 2.38-1.846l3.968-11.868c-0.132-0.529-0.53-0.923-1.323-0.923v-0.923h4.233c3.439 10.022 4.365 12.661 4.365 12.661 0.66 2.24 1.323 2.9 2.382 2.9v0.924l-7.009-0.001zM21.466 10.237l-1.983 6.462h4.1l-2.116-6.462z"></path>
</symbol>
<symbol id="icon-bar_chart_4_icon" viewBox="0 0 30 32">
<path d="M8.526 30.856h-7.722v-7.495h7.722v7.495zM18.596 19.802h-7.798v11.054h7.798v-11.054zM28.589 14.957h-7.798v15.899h7.798v-15.899zM28.735 1.144l-6.319 1.093 1.391 1.405-9.505 9.135-3.452-3.264-9.664 9.629 2.377 2.338 7.187-7.187 3.56 3.368 11.865-11.583 1.351 1.363 1.21-6.298z"></path>
</symbol>
<symbol id="icon-control-panel-icon" viewBox="0 0 32 32">
<path d="M25.087 2.659h-18.173c-3.186 0-5.769 2.583-5.769 5.769s2.583 5.769 5.769 5.769h18.173c3.186 0 5.769-2.583 5.769-5.769s-2.583-5.769-5.769-5.769zM10.014 11.313c-1.593 0-2.885-1.291-2.885-2.885s1.291-2.885 2.885-2.885c1.593 0 2.885 1.291 2.885 2.885s-1.291 2.885-2.885 2.885zM25.087 19.966c1.988 0 3.606 1.617 3.606 3.606s-1.618 3.606-3.606 3.606h-18.173c-1.988 0-3.606-1.617-3.606-3.606s1.618-3.606 3.606-3.606h18.173zM25.087 17.803h-18.173c-3.186 0-5.769 2.583-5.769 5.769s2.583 5.769 5.769 5.769h18.173c3.186 0 5.769-2.583 5.769-5.769s-2.583-5.769-5.769-5.769zM22.418 20.688c-1.593 0-2.885 1.291-2.885 2.885s1.291 2.885 2.885 2.885c1.593 0 2.885-1.292 2.885-2.885s-1.291-2.885-2.885-2.885z"></path>
</symbol>
<symbol id="icon-download-13-icon" viewBox="0 0 32 32">
<path d="M30.812 15.124c0 3.667-2.983 6.651-6.65 6.651h-2.567v-2.885h2.567c2.077 0 3.766-1.689 3.766-3.766 0-2.554-1.718-3.876-3.547-3.883-0.094-4.248-2.931-6.128-5.673-6.128-3.628 0-5.118 2.746-5.49 3.798-1.479-2.133-5.493-0.523-4.662 2.333-2.49-0.452-4.484 1.423-4.484 3.881 0 2.077 1.69 3.766 3.766 3.766h2.94v2.885h-2.94c-3.667 0-6.651-2.983-6.651-6.651 0-2.986 1.988-5.562 4.771-6.38 0.783-2.668 3.59-4.232 6.269-3.518 1.604-1.897 3.95-2.999 6.481-2.999 4.119 0 7.598 2.943 8.35 6.907 2.279 1.096 3.754 3.399 3.754 5.989zM19.573 18.724c0-2.218 0.437-3.497 2.302-4.099-1.447-0.61-9.017-2.078-9.017 4.833 0 2.321 0 4.248 0 4.248h-2.698l6.055 6.065 6.055-6.065h-2.698c0 0 0-3.044 0-4.983z"></path>
</symbol>
<symbol id="icon-laptop-2-icon" viewBox="0 0 32 32">
<path d="M28.322 5.395c0-0.863-0.7-1.563-1.563-1.563h-21.537c-0.863 0-1.563 0.7-1.563 1.563v15.156h24.662v-15.156zM26.212 18.441h-20.443v-12.5h20.443v12.5zM28.4 21.723h-24.818l-2.341 4.11c-0.275 0.484-0.273 1.077 0.007 1.558s0.794 0.777 1.351 0.777h26.801c0.558 0 1.073-0.297 1.352-0.78s0.281-1.077 0.003-1.561l-2.356-4.105zM13.017 25.941l0.625-1.836h4.727l0.625 1.836h-5.977z"></path>
</symbol>
<symbol id="icon-save-9-icon" viewBox="0 0 30 32">
<path d="M23.725 9.323l2.055-2.039c0.665 0.793 1.245 1.66 1.727 2.585l-2.653 1.15c-0.326-0.599-0.704-1.166-1.13-1.696zM25.182 21.313c-0.286 0.615-0.626 1.206-1.021 1.765l2.058 2.068c0.658-0.869 1.22-1.815 1.669-2.823l-2.707-1.010zM26.216 17.211c-0.043 0.701-0.149 1.391-0.315 2.061l2.715 1.013c0.27-0.986 0.438-2.015 0.49-3.074h-2.89zM14.778 23.013l7.906-7.92h-3.618v-13.929h-8.577v13.929h-3.618l7.906 7.92zM22.749 24.726c-2.149 2.082-4.972 3.226-7.971 3.226-3.061 0-5.939-1.192-8.104-3.357s-3.357-5.043-3.357-8.104c0-3.894 1.932-7.371 5.009-9.476v-3.34c-4.682 2.362-7.894 7.213-7.894 12.816 0 7.923 6.423 14.346 14.346 14.346 3.892 0 7.421-1.551 10.006-4.067l-2.035-2.044zM24.27 5.735c-0.917-0.809-1.937-1.504-3.040-2.060v3.34c0.344 0.235 0.672 0.488 0.987 0.757l2.053-2.037zM25.703 13.009c0.209 0.656 0.359 1.338 0.447 2.038h2.902c-0.11-1.105-0.346-2.172-0.693-3.189l-2.656 1.151z"></path>
</symbol>
<symbol id="icon-sitemap-7-icon" viewBox="0 0 30 32">
<path d="M24.937 22.202h-2.163c0-5.761-5.331-2.336-8.005-7.136-2.659 4.774-8.005 1.398-8.005 7.136h-2.163c0-9.615 9.087-2.090 9.087-12.404h2.163c0 10.32 9.087 2.776 9.087 12.404zM19.817 1.144h-10.096v7.212h10.096v-7.212zM0.635 23.644h10.096v7.212h-10.096v-7.212zM28.904 23.644v7.212h-10.096v-7.212h10.096z"></path>
</symbol>
<symbol id="icon-Frame-1" viewBox="0 0 32 32">
<path d="M7.247 3.42c0 1.89-1.395 3.42-3.691 3.42-2.161 0.002-3.556-1.528-3.556-3.42 0-1.935 1.44-3.42 3.646-3.42 2.204 0 3.556 1.485 3.601 3.42zM0.181 31.552v-22.010h6.84v22.008l-6.84 0.002z"></path>
<path d="M11.115 16.564c0-2.746-0.088-5.041-0.179-7.021h5.941l0.316 3.061h0.134c0.902-1.442 3.106-3.556 6.793-3.556 4.503-0.002 7.88 3.014 7.88 9.496v13.007h-6.842v-12.196c0-2.835-0.988-4.77-3.467-4.77-1.89 0-3.016 1.304-3.507 2.566-0.184 0.448-0.226 1.080-0.226 1.709v12.691h-6.842v-14.987z"></path>
</symbol>
<symbol id="icon-Frame" viewBox="0 0 32 32">
<path d="M28 0h-24c-2.2 0-4 1.801-4 4v24c0 2.202 1.8 4 4 4h12.139v-11.475h-3.834v-4.998h3.834v-2.504c0-3.861 2.848-6.884 6.487-6.884h3.533v5.643h-3.16c-0.826 0-1.071 0.474-1.071 1.131v2.613h4.232v4.998h-4.232v11.475h6.072c2.202 0 4-1.798 4-4v-24c0-2.199-1.798-4-4-4z"></path>
</symbol>
<symbol id="icon-Mail_1_x2C__Envelope_1" viewBox="0 0 36 32">
<path d="M17.178 24.435l-5.76-5.378c-0.454-0.425-1.19-0.425-1.645 0l-9.773 9.105v1.239c0 1.156 1.013 2.097 2.251 2.097h31.499c1.237 0 2.251-0.941 2.251-2.097v-1.239l-9.773-9.109c-0.457-0.42-1.195-0.42-1.645 0l-5.76 5.378c-0.454 0.427-1.19 0.427-1.645 0.004zM29.421 16.077l5.758 5.378c0.452 0.425 0.821 0.262 0.821-0.358v-11.571c0-0.623-0.369-0.783-0.821-0.358l-5.758 5.378c-0.457 0.422-0.457 1.107 0 1.532zM2.251 0c-1.237 0-2.251 0.945-2.251 2.099v0.378l17.090 16.009c0.452 0.425 1.186 0.425 1.638 0l17.271-16.198v-0.188c0-1.154-1.013-2.099-2.251-2.099h-31.499zM0 9.525v11.571c0 0.621 0.369 0.783 0.821 0.358l5.758-5.378c0.457-0.425 0.457-1.109 0-1.534l-5.758-5.376c-0.452-0.425-0.821-0.265-0.821 0.358z"></path>
</symbol>
<symbol id="icon-Vector" viewBox="0 0 38 32">
<path d="M38.4 3.693c-1.414 0.625-2.931 1.050-4.525 1.239 1.626-0.975 2.874-2.519 3.462-4.356-1.519 0.902-3.206 1.557-5.001 1.909-1.438-1.53-3.486-2.485-5.751-2.485-4.35 0-7.878 3.524-7.878 7.876 0 0.617 0.068 1.218 0.205 1.796-6.549-0.331-12.354-3.467-16.239-8.23-0.678 1.163-1.067 2.517-1.067 3.957 0 2.735 1.391 5.146 3.505 6.558-1.291-0.041-2.507-0.395-3.569-0.983 0 0.032 0 0.064 0 0.098 0 3.817 2.716 7.002 6.319 7.725-0.661 0.179-1.357 0.275-2.076 0.275-0.506 0-1.001-0.047-1.481-0.141 1.001 3.132 3.913 5.408 7.358 5.472-2.694 2.114-6.091 3.373-9.781 3.373-0.638 0-1.263-0.038-1.879-0.113 3.486 2.236 7.627 3.539 12.077 3.539 14.49 0 22.415-12.004 22.415-22.413 0-0.343-0.009-0.685-0.026-1.022 1.538-1.105 2.876-2.494 3.932-4.075z"></path>
</symbol>
</defs>
</svg>
